<svg width="300" height="150" viewBox="0 0 300 150" fill="none" xmlns="http://www.w3.org/2000/svg">
<g clip-path="url(#clip0_223_832)">
<path d="M295.018 99.9241C295.018 96.7441 293.225 95.5959 290.279 95.5959H267.91C257.408 95.5959 253.694 88.8825 253.225 84.245H284.26C293.311 84.245 296 77.4875 296 73.1592C296 68.5217 293.097 62.0733 284.26 62.0733H267.483C252.2 62.0733 247.205 72.8058 247.205 81.5508C247.205 91.135 252.926 101.028 267.44 101.028H295.018V99.9241ZM267.953 67.5058H283.492C288.871 67.5058 290.151 70.9508 290.151 73.2033C290.151 75.1908 288.956 78.9008 283.492 78.9008H253.225C253.609 74.97 256.725 67.5058 267.953 67.5058ZM204.643 98.555C203.064 100.808 201.954 101.603 200.545 101.603C198.581 101.603 197.855 100.498 196.447 98.555C193.074 93.785 170.619 62.0733 170.619 62.0733H174.077C177.834 62.0733 178.901 63.4425 180.438 65.695C181.121 66.6667 200.63 95.1541 200.63 95.1541C200.63 95.1541 220.14 66.7108 220.908 65.5625C222.36 63.4425 223.47 62.0733 227.226 62.0733H230.257C230.257 62.0733 207.418 94.6684 204.643 98.555ZM57.4479 101.028C55.1 101.028 53.6058 99.8359 53.1791 97.23L52.4106 92.99C51.1298 95.4191 46.4339 101.028 36.231 101.028H24.4912C8.52514 101.028 4 89.81 4 81.5508C4 72.2317 9.42164 62.0733 24.4912 62.0733H36.231C47.6719 62.0733 53.9901 68.9633 55.527 77.355C56.8075 84.3775 59.7959 101.028 59.7959 101.028H57.4479ZM34.9076 67.5058H24.8754C13.6053 67.5058 9.76315 74.9258 9.76315 81.5508C9.76315 88.1759 13.6053 95.5959 24.8754 95.5959H34.9076C46.6901 95.5959 50.1051 87.8666 50.1051 81.5508C50.1051 75.8975 47.0315 67.5058 34.9076 67.5058ZM237.899 57.6125C239.564 57.6125 240.845 56.5525 240.845 54.5208V53.24C240.845 51.2083 239.521 50.1483 237.899 50.1483C236.277 50.1483 234.953 51.1642 234.953 53.24V54.5208C234.911 56.5525 236.234 57.6125 237.899 57.6125ZM234.996 62.0733H236.362C239.051 62.0733 240.759 63.31 240.759 67.1083V101.028H239.308C236.362 101.028 234.953 99.3941 234.953 96.1259C234.996 95.64 234.996 62.0733 234.996 62.0733ZM68.6329 67.1525C71.1089 64.7233 75.5486 62.0733 82.5497 62.0733H94.2894C110.255 62.0733 114.781 73.2917 114.781 81.5508C114.781 90.87 109.359 101.028 94.2894 101.028H82.5497C71.1089 101.028 62.8695 93.3875 62.8695 81.5508V49H64.6627C67.224 49 68.6329 50.3692 68.6329 52.8425V67.1525ZM83.8305 95.5959H93.8627C105.133 95.5959 108.975 88.1759 108.975 81.5508C108.975 74.9258 105.133 67.5058 93.8627 67.5058H83.8305C72.0479 67.5058 68.6329 75.235 68.6329 81.5508C68.6329 87.2041 71.6637 95.5959 83.8305 95.5959ZM126.35 67.1525C128.826 64.7233 133.265 62.0733 140.267 62.0733H152.006C167.973 62.0733 172.498 73.2917 172.498 81.5508C172.498 90.87 167.076 101.028 152.006 101.028H140.267C128.826 101.028 120.587 93.3875 120.587 81.5508V49H122.379C124.941 49 126.35 50.3692 126.35 52.8425V67.1525ZM141.547 95.5959H151.579C162.85 95.5959 166.692 88.1759 166.692 81.5508C166.692 74.9258 162.85 67.5058 151.579 67.5058H141.547C129.765 67.5058 126.35 75.235 126.35 81.5508C126.35 87.2041 129.423 95.5959 141.547 95.5959Z" fill="#071D49"/>
</g>
<defs>
<clipPath id="clip0_223_832">
<rect width="292" height="53" fill="white" transform="translate(4 49)"/>
</clipPath>
</defs>
</svg>
