<svg width="116" height="156" viewBox="0 0 116 156" fill="none" xmlns="http://www.w3.org/2000/svg">
<path fill-rule="evenodd" clip-rule="evenodd" d="M78.8493 142.011L84.4182 155.961L86.7463 155.949C87.1449 155.442 86.9749 155.674 87.2442 155.079C87.3389 154.869 87.5092 154.398 87.608 154.164C89.257 150.25 90.8662 145.593 92.5539 141.998L92.5351 156L95.215 155.874L95.2307 139.043C89.8711 139.011 91.7757 138.038 88.5032 146.011C87.6882 147.996 86.5506 151.496 85.6002 153.161C85.1296 151.465 80.6474 139.792 80.021 139.034L76.2779 139.006L76.2388 155.983L78.8071 155.959L78.8493 142.011L78.8493 142.011ZM60.3345 141.021C62.7535 140.981 68.1871 140.463 69.293 142.307C70.0225 143.524 69.5831 145.24 68.7562 145.929C67.372 147.082 62.4719 146.746 60.3627 146.736L60.3345 141.021V141.021ZM57.6487 155.978L60.3901 155.972L60.3907 148.737C71.1287 148.281 68.6773 149.113 69.8443 155.96L73.1947 155.987C72.7243 154.756 73.1037 155.892 72.6479 154.963C71.3054 152.227 73.3484 149.258 70.0034 147.608C71.0873 146.49 72.4551 146.381 72.4802 143.73C72.5394 137.458 63.5121 139.149 57.6801 139.008L57.6487 155.978H57.6487ZM22.2511 148.027L32.7425 148.024L32.7015 155.955L35.468 155.905L35.4771 139.035L32.7421 139.107L32.6231 145.966L22.2775 145.976L22.2537 139.053L19.538 139.086L19.5385 155.959L22.2608 155.861L22.2511 148.027V148.027ZM103.219 148.945C103.66 147.379 105.513 142.534 106.374 141.638L109.344 148.939L103.219 148.945ZM97.3398 155.88L100.234 155.967L102.237 150.914L110.299 150.9L112.323 155.868L115.235 155.982C114.816 154.491 108.33 139.857 107.698 139.079L104.853 139.036L97.3398 155.88V155.88ZM43.4583 148.941C43.8886 147.514 45.8607 142.454 46.6471 141.657C47.4789 143.976 48.9401 146.533 49.5832 148.936L43.4583 148.941ZM42.5141 150.905L50.5208 150.952L52.6004 155.928L55.5003 155.97C54.7556 153.498 52.8302 149.698 51.6984 147.21C51.0312 145.744 50.4859 144.396 49.7969 142.92C47.7943 138.631 49.1657 138.981 45.0284 139.065L37.6549 155.951L40.432 155.915L42.5142 150.905L42.5141 150.905ZM5.17349 141.082C8.21425 141.142 14.115 140.03 14.0533 143.985C14.021 146.044 12.9075 146.564 10.9154 146.713C9.17905 146.842 7.03617 146.795 5.18844 146.754L5.17349 141.082ZM5.15813 148.793C9.1727 148.918 18.2818 149.815 16.6838 142.638C16.1159 140.087 13.9957 139.218 11.2273 139.07C8.53548 138.927 5.13505 138.932 2.44059 139.056L2.42173 155.987L5.16182 155.824L5.15813 148.793V148.793ZM31.5744 92.2824C32.806 93.7646 36.6626 92.0302 37.5293 96.7803C38.9381 104.502 36.1135 121.423 39.6091 126.459C42.2194 130.219 48.984 131.928 55.4583 131.545C72.2527 130.55 67.94 117.686 68.4217 102.358C68.5184 99.2849 68.903 95.9912 70.7016 94.0861C72.4899 92.192 77.561 92.9231 78.8611 94.471C79.9581 95.7767 79.366 112.142 79.3648 115.291C79.3636 118.602 79.4852 122.136 78.479 125.131C76.5012 131.018 73.0686 127.578 73.1109 130.263C74.3303 130.885 86.9953 130.79 88.2667 130.307C88.2035 128.511 86.7606 129.209 85.0104 128.652C80.915 127.349 80.9215 120.99 80.9212 117.36L80.9197 95.7136C81.5475 96.1753 80.9681 95.6437 81.4655 96.1935L101.347 127.332C102.15 128.635 103.292 131.026 104.683 131.591C106.707 129.34 106.637 128.683 109.935 126.841C110.997 126.248 111.601 126.237 112.031 125.338C111.159 124.444 109.613 124.352 108.867 123.189C108.206 122.159 108.586 109.072 108.586 107.277C108.586 103.745 108.13 96.1145 111.304 93.828C112.828 92.7308 114.708 93.4815 115.124 92.0239C114.357 90.9031 109.828 91.3513 107.44 91.3513C105.819 91.3513 100.415 90.8378 99.6514 92.0239C100.225 94.1255 103.221 91.7833 105.406 95.0868C108.001 99.0116 107.015 115.09 107.027 120.837L89.786 94.4206C88.4093 92.2984 89.3866 91.3513 86.4874 91.3513L62.1728 91.3537C60.814 91.3584 60.2724 91.202 59.3834 91.7558C59.942 94.9353 66.8507 89.2261 66.8507 103.916V117.101C66.8507 124.787 64.7377 129.215 57.2692 129.83C53.8609 130.11 50.2111 129.42 48.2342 127.671C46.2433 125.91 45.8681 122.444 45.8681 118.911C45.8681 115.006 45.3767 98.4447 46.7615 95.4827C48.5223 91.7164 52.6649 94.3386 53.1348 91.6598C51.3456 91.0077 44.8177 91.3513 42.2556 91.3513C40.3588 91.3513 38.4619 91.3517 36.565 91.3513C35.0873 91.351 31.8319 90.7514 31.5742 92.2824H31.5744ZM7.84067 133.342C9.87043 132.639 9.11041 130.091 12.735 130.554C15.3506 130.889 17.1492 131.251 19.934 131.003C34.2662 129.725 39.14 111.25 23.4608 106.654C16.6143 104.648 8.79052 104.086 8.70568 98.2283C8.66792 95.6279 9.98344 94.1271 11.334 93.1739C16.2597 89.6974 24.0659 92.6318 27.1921 97.7682C28.3484 99.6682 29.334 102.04 30.961 102.157C31.3776 100.573 29.5964 96.945 28.9224 95.2657C28.3731 93.8968 27.0068 89.2813 25.9599 88.6016C23.6864 90.7677 26.5033 91.5467 19.7459 90.4656C11.871 89.2057 3.65496 92.8489 2.55433 100.668C0.764979 113.379 15.2243 112.519 22.9499 117.261C24.7448 118.363 26.876 119.848 26.7891 122.789C26.6247 128.356 20.4963 130.362 15.2111 129.101C7.94577 127.368 3.79829 118.979 2.78672 118.24C1.19934 117.081 1.90832 119.736 2.21179 120.411C3.14623 122.492 7.11013 132.333 7.84072 133.342L7.84067 133.342ZM39.5173 44.9714C38.4734 33.9771 45.876 25.8524 55.7231 24.8572C66.2357 23.7946 74.9265 31.8949 75.8541 41.1143C77.538 57.8478 57.7537 66.9899 45.8606 56.886C42.992 54.449 40.0347 50.4191 39.5173 44.9714ZM54.2326 3.01662C48.4638 3.90523 43.6821 6.15952 40.1703 9.01764C38.3927 10.4644 36.5486 12.2543 35.1396 14.0736C33.8978 15.677 34.6403 15.5196 32.6352 16.4762C27.584 18.886 22.9323 23.9417 20.3039 29.4982C17.9694 34.4333 16.756 40.5047 17.576 46.7154C18.3011 52.2076 20.528 57.2518 23.4245 60.9516C26.8706 65.3537 30.4584 67.2992 31.1495 68.2116C33.4973 71.3115 34.5243 73.483 38.2161 76.4184C40.2122 78.0055 41.778 79.1015 44.321 80.3863C49.2846 82.8941 55.2766 83.9669 61.5023 83.1105C76.176 81.0918 80.7794 70.7789 82.7827 69.448C83.8128 68.7635 84.9198 68.0378 85.8399 67.3336C89.159 64.7933 92.7424 60.7626 95.0849 56.3949C97.561 51.7781 98.7169 45.5259 97.9774 39.4577C96.9895 31.3512 92.8894 24.6341 87.13 20.0228C84.229 17.7001 84.9238 17.7285 82.5197 14.5559C77.6381 8.11373 67.095 1.03529 54.2326 3.01667V3.01662Z" fill="black"/>
<path fill-rule="evenodd" clip-rule="evenodd" d="M42.7133 30.0502C43.4459 29.6243 43.0621 29.8477 43.6498 29.2976C51.0881 22.336 61.176 22.1647 70.129 26.6777C73.4997 28.3767 77.8158 31.7508 80.2507 34.6525C85.5812 41.005 87.9656 48.8111 86.9206 57.3038C86.2752 62.5486 85.3553 63.2057 84.3591 66.7702C87.4296 65.5874 91.1715 60.998 92.9845 58.1858C97.9287 50.517 98.4424 39.3169 94.4684 31.0515C91.8026 25.507 90.7193 25.0876 87.2325 21.4772C81.9806 16.039 71.1498 12.8029 61.2901 14.8304C54.8768 16.1492 49.5589 20.1037 45.8361 24.7734C44.8038 26.0681 43.2822 28.2416 42.7133 30.0502L42.7133 30.0502ZM72.8322 55.2257C70.962 56.2585 62.1495 67.6446 45.5736 59.2258C40.5941 56.6967 35.6981 51.8742 32.8123 47.4533C27.4419 39.2264 27.8974 26.3726 32.1481 18.1169C29.3713 19.0335 26.6345 22.019 24.9012 24.0106C24.3417 24.6536 24.4363 24.4519 23.966 25.1405C23.6694 25.5751 23.4252 25.9403 23.1198 26.3676C17.8088 33.7997 16.6406 45.4979 20.2999 53.9883C23.5549 61.5406 30.4424 68.0386 38.6002 70.3397C43.3682 71.6847 48.8942 72.0066 53.8825 70.817C58.515 69.7124 62.672 67.3542 65.4496 65.0535C67.9392 62.9915 71.4936 59.1979 72.8321 55.2256L72.8322 55.2257Z" fill="#F7C5A2"/>
<path fill-rule="evenodd" clip-rule="evenodd" d="M69.4861 27.7336C85.3215 41.3855 74.2274 66.325 54.5183 71.6921C51.0498 72.6366 46.9267 72.952 43.1287 72.4519C39.171 71.9308 36.9414 70.5694 33.6439 69.8156C34.5408 72.4699 39.7339 76.7585 42.3105 78.2589C46.0772 80.4523 49.8873 82.1292 55.194 82.3761C66.879 82.9198 74.1916 78.0631 79.1394 72.2684C92.6693 56.4226 84.523 33.7038 69.4862 27.7337L69.4861 27.7336ZM44.2024 57.022C42.8971 56.1239 40.296 51.8959 39.4938 49.7922C38.0743 46.0697 38.025 43.332 38.6613 39.0302C40.5503 26.2582 49.3805 16.3017 61.9547 13.7069C65.3644 13.0033 69.6531 13.0619 73.1182 13.5907C78.2499 14.374 79.4244 15.5837 82.3866 16.3274C81.8195 14.9191 79.4796 12.4033 78.5349 11.5531C65.6965 0.000102043 47.6782 1.46974 37.4886 12.793C28.6903 22.5704 26.5942 37.7801 35.4766 49.4221C37.1808 51.6558 41.3646 56.1727 44.2024 57.0221V57.022Z" fill="#E67817"/>
</svg>
